<mxfile host="app.diagrams.net" agent="Mozilla/5.0 (Windows NT 10.0; Win64; x64) AppleWebKit/537.36 (KHTML, like Gecko) Chrome/134.0.0.0 Safari/537.36" version="26.1.0" pages="2">
  <diagram name="Page-1" id="wJlr5OTCxFn2WnX857zH">
    <mxGraphModel dx="1509" dy="1913" grid="1" gridSize="10" guides="1" tooltips="1" connect="1" arrows="1" fold="1" page="1" pageScale="1" pageWidth="850" pageHeight="1100" math="0" shadow="0">
      <root>
        <mxCell id="0" />
        <mxCell id="1" parent="0" />
        <mxCell id="hgU6Fp-lKwBG7PjbyS6M-1" value="" style="strokeWidth=1;shadow=0;dashed=0;align=center;html=1;shape=mxgraph.mockup.containers.browserWindow;rSize=0;strokeColor=#666666;strokeColor2=#008cff;strokeColor3=#c4c4c4;mainText=,;recursiveResize=0;labelBackgroundColor=#E5CCFF;" vertex="1" parent="1">
          <mxGeometry x="20" y="-220" width="820" height="760" as="geometry" />
        </mxCell>
        <mxCell id="hgU6Fp-lKwBG7PjbyS6M-2" value="Hide Land" style="strokeWidth=1;shadow=0;dashed=0;align=center;html=1;shape=mxgraph.mockup.containers.anchor;fontSize=17;fontColor=#666666;align=left;whiteSpace=wrap;" vertex="1" parent="hgU6Fp-lKwBG7PjbyS6M-1">
          <mxGeometry x="60" y="12" width="110" height="26" as="geometry" />
        </mxCell>
        <mxCell id="hgU6Fp-lKwBG7PjbyS6M-3" value="https://www.HideLand.com" style="strokeWidth=1;shadow=0;dashed=0;align=center;html=1;shape=mxgraph.mockup.containers.anchor;rSize=0;fontSize=17;fontColor=#666666;align=left;" vertex="1" parent="hgU6Fp-lKwBG7PjbyS6M-1">
          <mxGeometry x="130" y="60" width="250" height="26" as="geometry" />
        </mxCell>
        <mxCell id="hgU6Fp-lKwBG7PjbyS6M-4" value="" style="rounded=1;whiteSpace=wrap;html=1;" vertex="1" parent="hgU6Fp-lKwBG7PjbyS6M-1">
          <mxGeometry x="280" y="300" width="300" height="380" as="geometry" />
        </mxCell>
        <mxCell id="hgU6Fp-lKwBG7PjbyS6M-5" value="Đăng nhập" style="strokeWidth=1;shadow=0;dashed=0;align=center;html=1;shape=mxgraph.mockup.buttons.button;strokeColor=#666666;fontColor=#ffffff;mainText=;buttonStyle=round;fontSize=17;fontStyle=1;fillColor=#008cff;whiteSpace=wrap;" vertex="1" parent="1">
          <mxGeometry x="340" y="280" width="210" height="30" as="geometry" />
        </mxCell>
        <mxCell id="hgU6Fp-lKwBG7PjbyS6M-6" value="--------------Hoặc đăng nhập với---------------" style="text;html=1;align=center;verticalAlign=middle;whiteSpace=wrap;rounded=0;fontSize=10;" vertex="1" parent="1">
          <mxGeometry x="310" y="303" width="255" height="30" as="geometry" />
        </mxCell>
        <mxCell id="hgU6Fp-lKwBG7PjbyS6M-7" value="Facebook" style="strokeWidth=1;shadow=0;dashed=0;align=center;html=1;shape=mxgraph.mockup.buttons.button;strokeColor=#666666;fontColor=#ffffff;mainText=;buttonStyle=round;fontSize=17;fontStyle=1;fillColor=#008cff;whiteSpace=wrap;" vertex="1" parent="1">
          <mxGeometry x="335" y="340" width="100" height="30" as="geometry" />
        </mxCell>
        <mxCell id="hgU6Fp-lKwBG7PjbyS6M-8" value="Google" style="strokeWidth=1;shadow=0;dashed=0;align=center;html=1;shape=mxgraph.mockup.buttons.button;strokeColor=#B20000;mainText=;buttonStyle=round;fontSize=17;fontStyle=1;fillColor=#e51400;whiteSpace=wrap;fontColor=#ffffff;" vertex="1" parent="1">
          <mxGeometry x="470" y="340" width="100" height="30" as="geometry" />
        </mxCell>
        <mxCell id="hgU6Fp-lKwBG7PjbyS6M-9" value="********" style="strokeWidth=1;shadow=0;dashed=0;align=center;html=1;shape=mxgraph.mockup.forms.pwField;strokeColor=#999999;mainText=;align=left;fontColor=#666666;fontSize=17;spacingLeft=3;" vertex="1" parent="1">
          <mxGeometry x="340" y="230" width="210" height="30" as="geometry" />
        </mxCell>
        <mxCell id="hgU6Fp-lKwBG7PjbyS6M-10" value="abc123" style="strokeWidth=1;shadow=0;dashed=0;align=center;html=1;shape=mxgraph.mockup.forms.pwField;strokeColor=#999999;mainText=;align=left;fontColor=#666666;fontSize=17;spacingLeft=3;" vertex="1" parent="1">
          <mxGeometry x="340" y="190" width="210" height="30" as="geometry" />
        </mxCell>
        <mxCell id="hgU6Fp-lKwBG7PjbyS6M-11" value="Bạn chưa có tài khoản?&lt;a href=&quot;https://app.diagrams.net/#HNgoAnhThanThien%2Fthanthien123%2Fmain%2FPrototyes_trasua_2785.drawio#%7B%22pageId%22%3A%22wJlr5OTCxFn2WnX857zH%22%7D&quot;&gt;&lt;b&gt;&lt;font&gt;Đăng ký ngay&lt;/font&gt;&lt;/b&gt;&lt;/a&gt;" style="text;html=1;align=center;verticalAlign=middle;whiteSpace=wrap;rounded=0;" vertex="1" parent="1">
          <mxGeometry x="355" y="380" width="210" height="30" as="geometry" />
        </mxCell>
        <mxCell id="hgU6Fp-lKwBG7PjbyS6M-12" value="Quên mặt khẩu" style="text;html=1;align=center;verticalAlign=middle;whiteSpace=wrap;rounded=0;fontColor=#FF6666;" vertex="1" parent="1">
          <mxGeometry x="377.5" y="410" width="150" height="20" as="geometry" />
        </mxCell>
        <mxCell id="hgU6Fp-lKwBG7PjbyS6M-13" value="Đăng nhập" style="text;html=1;align=center;verticalAlign=middle;whiteSpace=wrap;rounded=0;fontSize=19;fontStyle=1;fontColor=#FF00FF;" vertex="1" parent="1">
          <mxGeometry x="365" y="135" width="170" height="50" as="geometry" />
        </mxCell>
      </root>
    </mxGraphModel>
  </diagram>
  <diagram id="wtBKlfhDIjldnVnWm9H-" name="Page-2">
    <mxGraphModel dx="1687" dy="2008" grid="1" gridSize="10" guides="1" tooltips="1" connect="1" arrows="1" fold="1" page="1" pageScale="1" pageWidth="850" pageHeight="1100" math="0" shadow="0">
      <root>
        <mxCell id="0" />
        <mxCell id="1" parent="0" />
        <mxCell id="8k8BxZv_DXHg5_Ky2KHR-1" value="" style="strokeWidth=1;shadow=0;dashed=0;align=center;html=1;shape=mxgraph.mockup.containers.browserWindow;rSize=0;strokeColor=#666666;strokeColor2=#008cff;strokeColor3=#c4c4c4;mainText=,;recursiveResize=0;labelBackgroundColor=#E5CCFF;" vertex="1" parent="1">
          <mxGeometry x="30" y="-130" width="860" height="880" as="geometry" />
        </mxCell>
        <mxCell id="8k8BxZv_DXHg5_Ky2KHR-2" value="Hide Land" style="strokeWidth=1;shadow=0;dashed=0;align=center;html=1;shape=mxgraph.mockup.containers.anchor;fontSize=17;fontColor=#666666;align=left;whiteSpace=wrap;" vertex="1" parent="8k8BxZv_DXHg5_Ky2KHR-1">
          <mxGeometry x="60" y="12" width="110" height="26" as="geometry" />
        </mxCell>
        <mxCell id="8k8BxZv_DXHg5_Ky2KHR-3" value="https://www.HideLand.com/product" style="strokeWidth=1;shadow=0;dashed=0;align=center;html=1;shape=mxgraph.mockup.containers.anchor;rSize=0;fontSize=17;fontColor=#666666;align=left;" vertex="1" parent="8k8BxZv_DXHg5_Ky2KHR-1">
          <mxGeometry x="130" y="60" width="250" height="26" as="geometry" />
        </mxCell>
        <mxCell id="8k8BxZv_DXHg5_Ky2KHR-11" value="&lt;p class=&quot;MsoNormal&quot;&gt;&lt;b&gt;&lt;span style=&quot;font-family:&amp;quot;Times New Roman&amp;quot;,serif&quot;&gt;Tên sản&lt;br&gt;phẩm:&lt;/span&gt;&lt;/b&gt;&lt;span style=&quot;font-family:&amp;quot;Times New Roman&amp;quot;,serif&quot;&gt;&amp;nbsp;Trà Ô&lt;br&gt;Long Cao Cấp&lt;/span&gt;&lt;/p&gt;&lt;p class=&quot;MsoNormal&quot;&gt;&lt;span style=&quot;font-family: &amp;quot;Times New Roman&amp;quot;, serif; background-color: transparent; color: light-dark(rgb(0, 0, 0), rgb(255, 255, 255));&quot;&gt;&amp;nbsp;&lt;/span&gt;&lt;b style=&quot;font-family: &amp;quot;Times New Roman&amp;quot;, serif; background-color: transparent; color: light-dark(rgb(0, 0, 0), rgb(255, 255, 255));&quot;&gt;Mã sản phẩm:&lt;/b&gt;&lt;span style=&quot;font-family: &amp;quot;Times New Roman&amp;quot;, serif; background-color: transparent; color: light-dark(rgb(0, 0, 0), rgb(255, 255, 255));&quot;&gt;&amp;nbsp;OLC-001&lt;/span&gt;&lt;/p&gt;&lt;p class=&quot;MsoNormal&quot;&gt;&lt;span style=&quot;font-family:&amp;quot;Times New Roman&amp;quot;,serif&quot;&gt;&amp;nbsp;&lt;b&gt;Danh mục sản phẩm:&lt;/b&gt;&amp;nbsp;Trà Ô Long&lt;/span&gt;&lt;/p&gt;&lt;p class=&quot;MsoNormal&quot;&gt;&lt;span style=&quot;font-family:&amp;quot;Times New Roman&amp;quot;,serif&quot;&gt;&lt;b&gt;Giá bán:&lt;/b&gt;&amp;nbsp;150.000 VNĐ/100g&lt;/span&gt;&lt;/p&gt;&lt;p class=&quot;MsoNormal&quot;&gt;&lt;span style=&quot;font-family:&amp;quot;Times New Roman&amp;quot;,serif&quot;&gt;&lt;b&gt;Trạng thái:&lt;/b&gt;&amp;nbsp;Còn hàng&lt;/span&gt;&lt;/p&gt;" style="shape=mxgraph.mockup.containers.marginRect;rectMarginTop=10;strokeColor=#666666;strokeWidth=1;dashed=0;rounded=1;arcSize=5;recursiveResize=0;html=1;whiteSpace=wrap;" vertex="1" parent="8k8BxZv_DXHg5_Ky2KHR-1">
          <mxGeometry x="90" y="650" width="190" height="220" as="geometry" />
        </mxCell>
        <mxCell id="8k8BxZv_DXHg5_Ky2KHR-12" value="Trà sữa ô long" style="shape=rect;strokeColor=none;fillColor=#008cff;strokeWidth=1;dashed=0;rounded=1;arcSize=20;fontColor=#ffffff;fontSize=17;spacing=2;spacingTop=-2;align=left;autosize=1;spacingLeft=4;resizeWidth=0;resizeHeight=0;perimeter=none;html=1;whiteSpace=wrap;" vertex="1" parent="8k8BxZv_DXHg5_Ky2KHR-11">
          <mxGeometry x="5" width="140" height="30" as="geometry" />
        </mxCell>
        <mxCell id="8k8BxZv_DXHg5_Ky2KHR-17" value="Thêm mới thông tin sản phẩm trà sữa" style="text;html=1;align=center;verticalAlign=middle;whiteSpace=wrap;rounded=0;fontSize=31;fontStyle=1;fontFamily=Times New Roman;" vertex="1" parent="8k8BxZv_DXHg5_Ky2KHR-1">
          <mxGeometry x="140" y="150" width="520" height="30" as="geometry" />
        </mxCell>
        <mxCell id="8k8BxZv_DXHg5_Ky2KHR-26" value="" style="shape=mxgraph.mockup.containers.marginRect;rectMarginTop=10;strokeColor=#666666;strokeWidth=1;dashed=0;rounded=1;arcSize=5;recursiveResize=0;html=1;whiteSpace=wrap;" vertex="1" parent="8k8BxZv_DXHg5_Ky2KHR-1">
          <mxGeometry x="550" y="207.5" width="150" height="120" as="geometry" />
        </mxCell>
        <mxCell id="8k8BxZv_DXHg5_Ky2KHR-27" value="trạng thái hàng" style="shape=rect;strokeColor=none;fillColor=#008cff;strokeWidth=1;dashed=0;rounded=1;arcSize=20;fontColor=#ffffff;fontSize=17;spacing=2;spacingTop=-2;align=left;autosize=1;spacingLeft=4;resizeWidth=0;resizeHeight=0;perimeter=none;html=1;whiteSpace=wrap;" vertex="1" parent="8k8BxZv_DXHg5_Ky2KHR-26">
          <mxGeometry x="5" width="140" height="30" as="geometry" />
        </mxCell>
        <mxCell id="8k8BxZv_DXHg5_Ky2KHR-28" value="Còn hàng" style="shape=ellipse;fillColor=#eeeeee;strokeColor=#999999;gradientColor=#cccccc;html=1;align=left;spacingLeft=4;fontSize=17;fontColor=#666666;labelPosition=right;shadow=0;" vertex="1" parent="8k8BxZv_DXHg5_Ky2KHR-26">
          <mxGeometry x="15" y="65" width="15" height="15" as="geometry" />
        </mxCell>
        <mxCell id="8k8BxZv_DXHg5_Ky2KHR-29" value="Hết hàng" style="shape=ellipse;fillColor=#eeeeee;strokeColor=#999999;gradientColor=#cccccc;html=1;align=left;spacingLeft=4;fontSize=17;fontColor=#666666;labelPosition=right;shadow=0;" vertex="1" parent="8k8BxZv_DXHg5_Ky2KHR-26">
          <mxGeometry x="15" y="90" width="15" height="15" as="geometry" />
        </mxCell>
        <mxCell id="8k8BxZv_DXHg5_Ky2KHR-30" value="Add new" style="strokeWidth=1;shadow=0;dashed=0;align=center;html=1;shape=mxgraph.mockup.buttons.button;mainText=;buttonStyle=round;fontSize=17;fontStyle=1;whiteSpace=wrap;fillColor=#d80073;fontColor=#ffffff;strokeColor=#A50040;" vertex="1" parent="8k8BxZv_DXHg5_Ky2KHR-1">
          <mxGeometry x="130" y="352.5" width="130" height="60" as="geometry" />
        </mxCell>
        <mxCell id="8k8BxZv_DXHg5_Ky2KHR-31" value="Update&amp;nbsp;" style="strokeWidth=1;shadow=0;dashed=0;align=center;html=1;shape=mxgraph.mockup.buttons.button;strokeColor=#666666;fontColor=#ffffff;mainText=;buttonStyle=round;fontSize=17;fontStyle=1;fillColor=#008cff;whiteSpace=wrap;" vertex="1" parent="8k8BxZv_DXHg5_Ky2KHR-1">
          <mxGeometry x="290" y="352.5" width="130" height="60" as="geometry" />
        </mxCell>
        <mxCell id="8k8BxZv_DXHg5_Ky2KHR-32" value="Delete" style="strokeWidth=1;shadow=0;dashed=0;align=center;html=1;shape=mxgraph.mockup.buttons.button;strokeColor=#666666;fontColor=#ffffff;mainText=;buttonStyle=round;fontSize=17;fontStyle=1;fillColor=#008cff;whiteSpace=wrap;" vertex="1" parent="8k8BxZv_DXHg5_Ky2KHR-1">
          <mxGeometry x="460" y="352.5" width="130" height="60" as="geometry" />
        </mxCell>
        <mxCell id="8k8BxZv_DXHg5_Ky2KHR-33" value="Help" style="strokeWidth=1;shadow=0;dashed=0;align=center;html=1;shape=mxgraph.mockup.buttons.button;strokeColor=#666666;fontColor=#ffffff;mainText=;buttonStyle=round;fontSize=17;fontStyle=1;fillColor=#008cff;whiteSpace=wrap;" vertex="1" parent="8k8BxZv_DXHg5_Ky2KHR-1">
          <mxGeometry x="620" y="352.5" width="130" height="60" as="geometry" />
        </mxCell>
        <mxCell id="8k8BxZv_DXHg5_Ky2KHR-34" value="DANH SÁCH NHÂN VIÊN" style="text;html=1;align=center;verticalAlign=middle;whiteSpace=wrap;rounded=0;fontSize=20;fontStyle=1" vertex="1" parent="8k8BxZv_DXHg5_Ky2KHR-1">
          <mxGeometry x="245" y="432.5" width="380" height="30" as="geometry" />
        </mxCell>
        <mxCell id="8k8BxZv_DXHg5_Ky2KHR-35" value="" style="childLayout=tableLayout;recursiveResize=0;strokeColor=#98bf21;fillColor=#A7C942;shadow=1;align=left;" vertex="1" parent="8k8BxZv_DXHg5_Ky2KHR-1">
          <mxGeometry x="110" y="472.5" width="655" height="160" as="geometry" />
        </mxCell>
        <mxCell id="8k8BxZv_DXHg5_Ky2KHR-36" style="shape=tableRow;horizontal=0;startSize=0;swimlaneHead=0;swimlaneBody=0;top=0;left=0;bottom=0;right=0;dropTarget=0;collapsible=0;recursiveResize=0;expand=0;fontStyle=0;strokeColor=inherit;fillColor=#ffffff;" vertex="1" parent="8k8BxZv_DXHg5_Ky2KHR-35">
          <mxGeometry width="655" height="33" as="geometry" />
        </mxCell>
        <mxCell id="8k8BxZv_DXHg5_Ky2KHR-37" value="Mã Nhân Viên" style="connectable=0;recursiveResize=0;strokeColor=inherit;fillColor=#A7C942;align=center;fontStyle=1;fontColor=#FFFFFF;html=1;" vertex="1" parent="8k8BxZv_DXHg5_Ky2KHR-36">
          <mxGeometry width="218" height="33" as="geometry">
            <mxRectangle width="218" height="33" as="alternateBounds" />
          </mxGeometry>
        </mxCell>
        <mxCell id="8k8BxZv_DXHg5_Ky2KHR-38" value="HỌ VÀ TÊN" style="connectable=0;recursiveResize=0;strokeColor=inherit;fillColor=#A7C942;align=center;fontStyle=1;fontColor=#FFFFFF;html=1;" vertex="1" parent="8k8BxZv_DXHg5_Ky2KHR-36">
          <mxGeometry x="218" width="219" height="33" as="geometry">
            <mxRectangle width="219" height="33" as="alternateBounds" />
          </mxGeometry>
        </mxCell>
        <mxCell id="8k8BxZv_DXHg5_Ky2KHR-39" value="Quê Quán" style="connectable=0;recursiveResize=0;strokeColor=inherit;fillColor=#A7C942;align=center;fontStyle=1;fontColor=#FFFFFF;html=1;" vertex="1" parent="8k8BxZv_DXHg5_Ky2KHR-36">
          <mxGeometry x="437" width="218" height="33" as="geometry">
            <mxRectangle width="218" height="33" as="alternateBounds" />
          </mxGeometry>
        </mxCell>
        <mxCell id="8k8BxZv_DXHg5_Ky2KHR-40" value="" style="shape=tableRow;horizontal=0;startSize=0;swimlaneHead=0;swimlaneBody=0;top=0;left=0;bottom=0;right=0;dropTarget=0;collapsible=0;recursiveResize=0;expand=0;fontStyle=0;strokeColor=inherit;fillColor=#ffffff;" vertex="1" parent="8k8BxZv_DXHg5_Ky2KHR-35">
          <mxGeometry y="33" width="655" height="32" as="geometry" />
        </mxCell>
        <mxCell id="8k8BxZv_DXHg5_Ky2KHR-41" value="001" style="connectable=0;recursiveResize=0;strokeColor=inherit;fillColor=inherit;align=center;whiteSpace=wrap;html=1;" vertex="1" parent="8k8BxZv_DXHg5_Ky2KHR-40">
          <mxGeometry width="218" height="32" as="geometry">
            <mxRectangle width="218" height="32" as="alternateBounds" />
          </mxGeometry>
        </mxCell>
        <mxCell id="8k8BxZv_DXHg5_Ky2KHR-42" value="Vũ Như Cẩn" style="connectable=0;recursiveResize=0;strokeColor=inherit;fillColor=inherit;align=left;whiteSpace=wrap;html=1;" vertex="1" parent="8k8BxZv_DXHg5_Ky2KHR-40">
          <mxGeometry x="218" width="219" height="32" as="geometry">
            <mxRectangle width="219" height="32" as="alternateBounds" />
          </mxGeometry>
        </mxCell>
        <mxCell id="8k8BxZv_DXHg5_Ky2KHR-43" value="Quảng Nam" style="connectable=0;recursiveResize=0;strokeColor=inherit;fillColor=inherit;align=left;whiteSpace=wrap;html=1;" vertex="1" parent="8k8BxZv_DXHg5_Ky2KHR-40">
          <mxGeometry x="437" width="218" height="32" as="geometry">
            <mxRectangle width="218" height="32" as="alternateBounds" />
          </mxGeometry>
        </mxCell>
        <mxCell id="8k8BxZv_DXHg5_Ky2KHR-44" value="" style="shape=tableRow;horizontal=0;startSize=0;swimlaneHead=0;swimlaneBody=0;top=0;left=0;bottom=0;right=0;dropTarget=0;collapsible=0;recursiveResize=0;expand=0;fontStyle=1;strokeColor=inherit;fillColor=#EAF2D3;" vertex="1" parent="8k8BxZv_DXHg5_Ky2KHR-35">
          <mxGeometry y="65" width="655" height="31" as="geometry" />
        </mxCell>
        <mxCell id="8k8BxZv_DXHg5_Ky2KHR-45" value="002" style="connectable=0;recursiveResize=0;strokeColor=inherit;fillColor=inherit;whiteSpace=wrap;html=1;" vertex="1" parent="8k8BxZv_DXHg5_Ky2KHR-44">
          <mxGeometry width="218" height="31" as="geometry">
            <mxRectangle width="218" height="31" as="alternateBounds" />
          </mxGeometry>
        </mxCell>
        <mxCell id="8k8BxZv_DXHg5_Ky2KHR-46" value="Đổng Như Khởi" style="connectable=0;recursiveResize=0;strokeColor=inherit;fillColor=inherit;whiteSpace=wrap;html=1;align=left;" vertex="1" parent="8k8BxZv_DXHg5_Ky2KHR-44">
          <mxGeometry x="218" width="219" height="31" as="geometry">
            <mxRectangle width="219" height="31" as="alternateBounds" />
          </mxGeometry>
        </mxCell>
        <mxCell id="8k8BxZv_DXHg5_Ky2KHR-47" value="Đà Nẵng" style="connectable=0;recursiveResize=0;strokeColor=inherit;fillColor=inherit;whiteSpace=wrap;html=1;align=left;" vertex="1" parent="8k8BxZv_DXHg5_Ky2KHR-44">
          <mxGeometry x="437" width="218" height="31" as="geometry">
            <mxRectangle width="218" height="31" as="alternateBounds" />
          </mxGeometry>
        </mxCell>
        <mxCell id="8k8BxZv_DXHg5_Ky2KHR-48" value="" style="shape=tableRow;horizontal=0;startSize=0;swimlaneHead=0;swimlaneBody=0;top=0;left=0;bottom=0;right=0;dropTarget=0;collapsible=0;recursiveResize=0;expand=0;fontStyle=0;strokeColor=inherit;fillColor=#ffffff;align=left;" vertex="1" parent="8k8BxZv_DXHg5_Ky2KHR-35">
          <mxGeometry y="96" width="655" height="33" as="geometry" />
        </mxCell>
        <mxCell id="8k8BxZv_DXHg5_Ky2KHR-49" value="003" style="connectable=0;recursiveResize=0;strokeColor=inherit;fillColor=inherit;fontStyle=0;align=center;whiteSpace=wrap;html=1;" vertex="1" parent="8k8BxZv_DXHg5_Ky2KHR-48">
          <mxGeometry width="218" height="33" as="geometry">
            <mxRectangle width="218" height="33" as="alternateBounds" />
          </mxGeometry>
        </mxCell>
        <mxCell id="8k8BxZv_DXHg5_Ky2KHR-50" value="U Như Kỹ" style="connectable=0;recursiveResize=0;strokeColor=inherit;fillColor=inherit;fontStyle=0;align=left;whiteSpace=wrap;html=1;" vertex="1" parent="8k8BxZv_DXHg5_Ky2KHR-48">
          <mxGeometry x="218" width="219" height="33" as="geometry">
            <mxRectangle width="219" height="33" as="alternateBounds" />
          </mxGeometry>
        </mxCell>
        <mxCell id="8k8BxZv_DXHg5_Ky2KHR-51" value="Quảng Bình" style="connectable=0;recursiveResize=0;strokeColor=inherit;fillColor=inherit;fontStyle=0;align=left;whiteSpace=wrap;html=1;" vertex="1" parent="8k8BxZv_DXHg5_Ky2KHR-48">
          <mxGeometry x="437" width="218" height="33" as="geometry">
            <mxRectangle width="218" height="33" as="alternateBounds" />
          </mxGeometry>
        </mxCell>
        <mxCell id="8k8BxZv_DXHg5_Ky2KHR-52" value="" style="shape=tableRow;horizontal=0;startSize=0;swimlaneHead=0;swimlaneBody=0;top=0;left=0;bottom=0;right=0;dropTarget=0;collapsible=0;recursiveResize=0;expand=0;fontStyle=1;strokeColor=inherit;fillColor=#EAF2D3;" vertex="1" parent="8k8BxZv_DXHg5_Ky2KHR-35">
          <mxGeometry y="129" width="655" height="31" as="geometry" />
        </mxCell>
        <mxCell id="8k8BxZv_DXHg5_Ky2KHR-53" value="004" style="connectable=0;recursiveResize=0;strokeColor=inherit;fillColor=inherit;whiteSpace=wrap;html=1;" vertex="1" parent="8k8BxZv_DXHg5_Ky2KHR-52">
          <mxGeometry width="218" height="31" as="geometry">
            <mxRectangle width="218" height="31" as="alternateBounds" />
          </mxGeometry>
        </mxCell>
        <mxCell id="8k8BxZv_DXHg5_Ky2KHR-54" value="Nguyễn Văn Anh" style="connectable=0;recursiveResize=0;strokeColor=inherit;fillColor=inherit;whiteSpace=wrap;html=1;align=left;" vertex="1" parent="8k8BxZv_DXHg5_Ky2KHR-52">
          <mxGeometry x="218" width="219" height="31" as="geometry">
            <mxRectangle width="219" height="31" as="alternateBounds" />
          </mxGeometry>
        </mxCell>
        <mxCell id="8k8BxZv_DXHg5_Ky2KHR-55" value="TT Huế" style="connectable=0;recursiveResize=0;strokeColor=inherit;fillColor=inherit;whiteSpace=wrap;html=1;align=left;" vertex="1" parent="8k8BxZv_DXHg5_Ky2KHR-52">
          <mxGeometry x="437" width="218" height="31" as="geometry">
            <mxRectangle width="218" height="31" as="alternateBounds" />
          </mxGeometry>
        </mxCell>
        <mxCell id="8k8BxZv_DXHg5_Ky2KHR-56" value="&lt;span style=&quot;color: rgba(0, 0, 0, 0); font-family: monospace; font-size: 0px;&quot;&gt;%3CmxGraphModel%3E%3Croot%3E%3CmxCell%20id%3D%220%22%2F%3E%3CmxCell%20id%3D%221%22%20parent%3D%220%22%2F%3E%3CmxCell%20id%3D%222%22%20value%3D%22Setting%201%22%20style%3D%22shape%3Dellipse%3BfillColor%3D%23eeeeee%3BstrokeColor%3D%23999999%3BgradientColor%3D%23cccccc%3Bhtml%3D1%3Balign%3Dleft%3BspacingLeft%3D4%3BfontSize%3D17%3BfontColor%3D%23666666%3BlabelPosition%3Dright%3Bshadow%3D0%3B%22%20vertex%3D%221%22%20parent%3D%221%22%3E%3CmxGeometry%20x%3D%22405%22%20y%3D%22535%22%20width%3D%2215%22%20height%3D%2215%22%20as%3D%22geometry%22%2F%3E%3C%2FmxCell%3E%3C%2Froot%3E%3C%2FmxGraphModel%3E&lt;/span&gt;" style="strokeWidth=1;shadow=0;dashed=0;align=center;html=1;shape=mxgraph.mockup.forms.pwField;strokeColor=#999999;mainText=;align=left;fontColor=#666666;fontSize=17;spacingLeft=3;" vertex="1" parent="8k8BxZv_DXHg5_Ky2KHR-1">
          <mxGeometry x="130" y="220" width="150" height="30" as="geometry" />
        </mxCell>
        <mxCell id="8k8BxZv_DXHg5_Ky2KHR-57" value="&lt;span style=&quot;color: rgba(0, 0, 0, 0); font-family: monospace; font-size: 0px;&quot;&gt;%3CmxGraphModel%3E%3Croot%3E%3CmxCell%20id%3D%220%22%2F%3E%3CmxCell%20id%3D%221%22%20parent%3D%220%22%2F%3E%3CmxCell%20id%3D%222%22%20value%3D%22Setting%201%22%20style%3D%22shape%3Dellipse%3BfillColor%3D%23eeeeee%3BstrokeColor%3D%23999999%3BgradientColor%3D%23cccccc%3Bhtml%3D1%3Balign%3Dleft%3BspacingLeft%3D4%3BfontSize%3D17%3BfontColor%3D%23666666%3BlabelPosition%3Dright%3Bshadow%3D0%3B%22%20vertex%3D%221%22%20parent%3D%221%22%3E%3CmxGeometry%20x%3D%22405%22%20y%3D%22535%22%20width%3D%2215%22%20height%3D%2215%22%20as%3D%22geometry%22%2F%3E%3C%2FmxCell%3E%3C%2Froot%3E%3C%2FmxGraphModel%3E&lt;/span&gt;" style="strokeWidth=1;shadow=0;dashed=0;align=center;html=1;shape=mxgraph.mockup.forms.pwField;strokeColor=#999999;mainText=;align=left;fontColor=#666666;fontSize=17;spacingLeft=3;" vertex="1" parent="8k8BxZv_DXHg5_Ky2KHR-1">
          <mxGeometry x="130" y="260" width="150" height="30" as="geometry" />
        </mxCell>
        <mxCell id="8k8BxZv_DXHg5_Ky2KHR-58" value="Tên sản phẩm:" style="text;html=1;align=center;verticalAlign=middle;whiteSpace=wrap;rounded=0;" vertex="1" parent="8k8BxZv_DXHg5_Ky2KHR-1">
          <mxGeometry x="30" y="220" width="110" height="30" as="geometry" />
        </mxCell>
        <mxCell id="8k8BxZv_DXHg5_Ky2KHR-59" value="Mã sản phẩm:" style="text;html=1;align=center;verticalAlign=middle;whiteSpace=wrap;rounded=0;" vertex="1" parent="8k8BxZv_DXHg5_Ky2KHR-1">
          <mxGeometry x="45" y="260" width="80" height="30" as="geometry" />
        </mxCell>
        <mxCell id="8k8BxZv_DXHg5_Ky2KHR-61" value="&lt;span style=&quot;color: rgba(0, 0, 0, 0); font-family: monospace; font-size: 0px;&quot;&gt;%3CmxGraphModel%3E%3Croot%3E%3CmxCell%20id%3D%220%22%2F%3E%3CmxCell%20id%3D%221%22%20parent%3D%220%22%2F%3E%3CmxCell%20id%3D%222%22%20value%3D%22Setting%201%22%20style%3D%22shape%3Dellipse%3BfillColor%3D%23eeeeee%3BstrokeColor%3D%23999999%3BgradientColor%3D%23cccccc%3Bhtml%3D1%3Balign%3Dleft%3BspacingLeft%3D4%3BfontSize%3D17%3BfontColor%3D%23666666%3BlabelPosition%3Dright%3Bshadow%3D0%3B%22%20vertex%3D%221%22%20parent%3D%221%22%3E%3CmxGeometry%20x%3D%22405%22%20y%3D%22535%22%20width%3D%2215%22%20height%3D%2215%22%20as%3D%22geometry%22%2F%3E%3C%2FmxCell%3E%3C%2Froot%3E%3C%2FmxGraphModel%3E&lt;/span&gt;" style="strokeWidth=1;shadow=0;dashed=0;align=center;html=1;shape=mxgraph.mockup.forms.pwField;strokeColor=#999999;mainText=;align=left;fontColor=#666666;fontSize=17;spacingLeft=3;" vertex="1" parent="8k8BxZv_DXHg5_Ky2KHR-1">
          <mxGeometry x="130" y="300" width="150" height="30" as="geometry" />
        </mxCell>
        <mxCell id="8k8BxZv_DXHg5_Ky2KHR-62" value="Loại hàng:" style="text;html=1;align=center;verticalAlign=middle;whiteSpace=wrap;rounded=0;" vertex="1" parent="8k8BxZv_DXHg5_Ky2KHR-1">
          <mxGeometry x="52" y="300" width="80" height="30" as="geometry" />
        </mxCell>
      </root>
    </mxGraphModel>
  </diagram>
</mxfile>
